<svg width="30" height="30" viewBox="0 0 30 30" fill="none" xmlns="http://www.w3.org/2000/svg">
<path d="M25.1415 2.02839V1.36242C25.1415 1.00102 24.9982 0.654422 24.743 0.398872C24.4879 0.143322 24.1419 -0.000244141 23.7811 -0.000244141C23.4203 -0.000244141 23.0743 0.143322 22.8192 0.398872C22.5641 0.654422 22.4207 1.00102 22.4207 1.36242V1.81323H7.42584V1.36242C7.42584 1.00102 7.28252 0.654422 7.0274 0.398872C6.77228 0.143322 6.42626 -0.000244141 6.06546 -0.000244141C5.70467 -0.000244141 5.35865 0.143322 5.10353 0.398872C4.84841 0.654422 4.70508 1.00102 4.70508 1.36242V2.06937C3.36815 2.42874 2.18501 3.21574 1.33568 4.31062C0.486356 5.4055 0.0173413 6.74833 0 8.13478V23.6774C0.0295947 25.3821 0.733476 27.0054 1.95704 28.1907C3.18061 29.376 4.82382 30.0263 6.52574 29.9989H13.747C13.9203 29.9989 14.0919 29.9647 14.252 29.8983C14.412 29.8319 14.5575 29.7345 14.68 29.6118C14.8025 29.4891 14.8997 29.3434 14.966 29.183C15.0324 29.0227 15.0665 28.8508 15.0665 28.6772C15.0665 28.5037 15.0324 28.3318 14.966 28.1715C14.8997 28.0111 14.8025 27.8654 14.68 27.7427C14.5575 27.6199 14.412 27.5226 14.252 27.4562C14.0919 27.3897 13.9203 27.3556 13.747 27.3556H6.52574C6.0346 27.3651 5.54641 27.2774 5.08916 27.0975C4.63191 26.9177 4.21459 26.6492 3.86111 26.3075C3.50763 25.9658 3.22495 25.5576 3.02927 25.1063C2.83359 24.655 2.72875 24.1694 2.72076 23.6774V12.2535H27.269V19.1796H24.6096C23.0695 19.1549 21.5824 19.7427 20.4742 20.8144C19.366 21.886 18.7272 23.354 18.6976 24.8966V28.5236C18.7008 28.8274 18.8092 29.1208 19.0044 29.3535C19.128 29.5515 19.2999 29.7147 19.5039 29.8276C19.7079 29.9406 19.9374 29.9995 20.1705 29.9989H21.6638C22.7787 29.9989 24.4664 28.8924 26.686 26.7101C28.9056 24.5278 30 22.9397 30 21.9151V8.13478C29.981 6.72134 29.4933 5.35436 28.6138 4.24892C27.7342 3.14348 26.5127 2.36233 25.1415 2.02839ZM2.72076 9.61014V8.13478C2.72469 7.46764 2.9107 6.81429 3.25865 6.24543C3.60661 5.67657 4.10326 5.21387 4.69485 4.90741V5.86025C4.69485 6.22165 4.83818 6.56825 5.0933 6.8238C5.34842 7.07935 5.69444 7.22292 6.05523 7.22292C6.41603 7.22292 6.76205 7.07935 7.01717 6.8238C7.27229 6.56825 7.41562 6.22165 7.41562 5.86025V4.4566H22.4207V5.86025C22.4207 6.22165 22.5641 6.56825 22.8192 6.8238C23.0743 7.07935 23.4203 7.22292 23.7811 7.22292C24.1419 7.22292 24.4879 7.07935 24.743 6.8238C24.9982 6.56825 25.1415 6.22165 25.1415 5.86025V4.83569C25.7703 5.12902 26.3037 5.59432 26.6801 6.17799C27.0565 6.76167 27.2606 7.43997 27.269 8.13478V9.61014H2.72076ZM21.5718 27.3146H21.4183V24.8556C21.4345 24.0259 21.7784 23.2364 22.3747 22.6602C22.971 22.0841 23.771 21.7682 24.5994 21.7819H27.269C26.7883 23.0422 22.748 26.9867 21.5718 27.3146Z" fill="black"/>
</svg>
