<svg width="32" height="32" viewBox="0 0 32 32" fill="none" xmlns="http://www.w3.org/2000/svg">
<path d="M6.51579 18.6514C6.18656 18.6892 5.88321 18.8482 5.66486 19.0975C5.44651 19.3468 5.3288 19.6685 5.33468 19.9998V28.0018C5.33593 28.3538 5.47632 28.691 5.72524 28.94C5.97416 29.1889 6.3114 29.3293 6.66342 29.3305H25.3347C25.6867 29.3293 26.024 29.1889 26.2729 28.94C26.5218 28.691 26.6622 28.3538 26.6634 28.0018V19.9998C26.6635 19.8246 26.629 19.6512 26.562 19.4893C26.495 19.3275 26.3968 19.1804 26.2729 19.0565C26.1491 18.9326 26.0021 18.8344 25.8402 18.7673C25.6784 18.7003 25.5049 18.6658 25.3298 18.6658C25.1546 18.6658 24.9811 18.7003 24.8193 18.7673C24.6575 18.8344 24.5104 18.9326 24.3866 19.0565C24.2628 19.1804 24.1645 19.3275 24.0975 19.4893C24.0305 19.6512 23.9961 19.8246 23.9961 19.9998V26.6632H8.00201V19.9998C8.00539 19.8098 7.96813 19.6213 7.89272 19.4469C7.81731 19.2724 7.70549 19.1162 7.56476 18.9885C7.42403 18.8608 7.25763 18.7647 7.07672 18.7065C6.8958 18.6484 6.70456 18.6296 6.51579 18.6514Z" fill="#00001D"/>
<path d="M15.9842 2.66702C15.6362 2.6725 15.3042 2.81379 15.059 3.06072L3.06096 15.0588C2.921 15.1782 2.80726 15.3253 2.72691 15.4908C2.64656 15.6563 2.60133 15.8366 2.59406 16.0205C2.58679 16.2043 2.61765 16.3877 2.68468 16.559C2.75172 16.7303 2.85348 16.886 2.98358 17.0161C3.11368 17.1461 3.26929 17.2479 3.44062 17.3149C3.61196 17.382 3.79532 17.4128 3.97916 17.4056C4.163 17.3983 4.34335 17.3531 4.50886 17.2727C4.67437 17.1924 4.82146 17.0786 4.94088 16.9387L16.0039 5.88552L27.057 16.9387C27.1789 17.0693 27.3259 17.1741 27.4891 17.2468C27.6523 17.3196 27.8285 17.3588 28.0071 17.3621C28.1858 17.3654 28.3633 17.3328 28.5291 17.2661C28.6949 17.1995 28.8456 17.1002 28.9723 16.9742C29.099 16.8482 29.1991 16.698 29.2666 16.5325C29.334 16.3671 29.3676 16.1897 29.3652 16.0111C29.3628 15.8324 29.3246 15.656 29.2527 15.4924C29.1808 15.3288 29.0768 15.1814 28.9468 15.0588L16.9389 3.06072C16.8139 2.93491 16.6651 2.8353 16.5012 2.76769C16.3373 2.70009 16.1615 2.66587 15.9842 2.66702Z" fill="black"/>
</svg>
